<?xml version="1.0" encoding="utf-8"?>
<!-- Generator: Adobe Illustrator 16.0.0, SVG Export Plug-In . SVG Version: 6.00 Build 0)  -->
<!DOCTYPE svg PUBLIC "-//W3C//DTD SVG 1.1//EN" "http://www.w3.org/Graphics/SVG/1.1/DTD/svg11.dtd">
<svg version="1.1" xmlns="http://www.w3.org/2000/svg" xmlns:xlink="http://www.w3.org/1999/xlink" x="0px" y="0px" width="565.5px"
	 height="209px" viewBox="0 0 565.5 209" enable-background="new 0 0 565.5 209" xml:space="preserve">
<g id="Camada_3">
	<path opacity="0.7" fill="#D1F0ED" d="M565.5,135C402,187.5,279,21,0,21v188h565.5V135z"/>
</g>
<g id="Camada_2">
	<path opacity="0.7" fill="#A8E4E3" d="M565.5,209H0V87.5c280.5,17,220.5-113,565.5-57.5V209z"/>
</g>
<g id="Camada_4">
	<path opacity="0.7" fill="#A8E4E3" d="M565.5,78C313,132,309.5-22.5,0,53.5V209h565.5V78z"/>
	<path opacity="0.8" fill="#83DCDB" d="M565.83,146.002C142,229.5,283.25,125,0,106.5V209h566.5L565.83,146.002z"/>
	<path opacity="0.7" fill="#8ED5E8" d="M566.5,209H0v-13.5c200.5-4,273.5-78,565.5-80.5L566.5,209z"/>
	<path opacity="0.7" fill="#74DDCD" d="M223.5,209H0v-62C0,147,156.5,147,223.5,209L223.5,209z"/>
</g>
</svg>
