<?xml version="1.0" encoding="utf-8"?>
<!-- Generator: Adobe Illustrator 16.0.0, SVG Export Plug-In . SVG Version: 6.00 Build 0)  -->
<!DOCTYPE svg PUBLIC "-//W3C//DTD SVG 1.1//EN" "http://www.w3.org/Graphics/SVG/1.1/DTD/svg11.dtd">
<svg version="1.1" id="Camada_1" xmlns="http://www.w3.org/2000/svg" xmlns:xlink="http://www.w3.org/1999/xlink" x="0px" y="0px"
	 width="30.112px" height="38.222px" viewBox="0 0 30.112 38.222" enable-background="new 0 0 30.112 38.222" xml:space="preserve">
<path fill="#FFFFFF" d="M15.922,21.017c5.155-0.355,9.241-4.664,9.241-9.914c0-5.481-4.454-9.94-9.93-9.94
	c-5.475,0-9.929,4.459-9.929,9.94c0,5.25,4.086,9.558,9.241,9.914c-3.859,0.148-7.258,1.543-9.627,3.969
	c-2.434,2.49-3.671,5.939-3.578,9.973c0.025,1.09,0.916,1.959,2.004,1.959H27.12c1.09,0,1.979-0.869,2.004-1.959
	c0.094-4.035-1.144-7.483-3.577-9.975C23.179,22.56,19.781,21.166,15.922,21.017L15.922,21.017z M15.922,21.017"/>
</svg>
