<svg xmlns="http://www.w3.org/2000/svg" width="565.5" height="209"><path opacity=".7" fill="#D1F0ED" d="M565.5 135C402 187.5 279 21 0 21v188h565.5v-74z"/><path opacity=".7" fill="#A8E4E3" d="M565.5 209H0V87.5c280.5 17 220.5-113 565.5-57.5v179z"/><path opacity=".7" fill="#A8E4E3" d="M565.5 78C313 132 309.5-22.5 0 53.5V209h565.5V78z"/><path opacity=".8" fill="#83DCDB" d="M565.83 146.002C142 229.5 283.25 125 0 106.5V209h566.5l-.67-62.998z"/><path opacity=".7" fill="#8ED5E8" d="M566.5 209H0v-13.5c200.5-4 273.5-78 565.5-80.5l1 94z"/><path opacity=".7" fill="#74DDCD" d="M223.5 209H0v-62s156.5 0 223.5 62z"/></svg>