<?xml version="1.0" encoding="utf-8"?>
<!-- Generator: Adobe Illustrator 16.0.0, SVG Export Plug-In . SVG Version: 6.00 Build 0)  -->
<!DOCTYPE svg PUBLIC "-//W3C//DTD SVG 1.1//EN" "http://www.w3.org/Graphics/SVG/1.1/DTD/svg11.dtd">
<svg version="1.1" id="Camada_1" xmlns="http://www.w3.org/2000/svg" xmlns:xlink="http://www.w3.org/1999/xlink" x="0px" y="0px"
	 width="30.112px" height="38.222px" viewBox="0 0 30.112 38.222" enable-background="new 0 0 30.112 38.222" xml:space="preserve">
<g>
	<circle fill="#FFFFFF" cx="15.056" cy="19.112" r="14.181"/>
	<circle fill="#811384" cx="15.056" cy="19.112" r="11.813"/>
	<g>
		<path fill="#FFFFFF" d="M15.056,30.924c-6.525,0-11.813-5.288-11.813-11.813c0-6.525,5.288-11.814,11.813-11.814l0,0V4.93l0,0
			c-7.832,0-14.181,6.349-14.181,14.182c0,7.832,6.349,14.181,14.181,14.181l0,0V30.924L15.056,30.924z"/>
		<path fill="#811384" d="M3.243,19.112c0,6.524,5.288,11.813,11.813,11.813l0,0V7.297l0,0C8.531,7.297,3.243,12.587,3.243,19.112z"
			/>
	</g>
	<path fill="#773249" d="M15.691,9.152c0,0.303-0.245,0.548-0.548,0.548h-0.174c-0.303,0-0.548-0.246-0.548-0.548V6.974
		c0-0.302,0.245-0.548,0.548-0.548h0.174c0.303,0,0.548,0.246,0.548,0.548V9.152z"/>
	<path fill="#FFFFFF" d="M5.097,18.476c0.303,0,0.549,0.245,0.549,0.549v0.173c0,0.304-0.246,0.55-0.549,0.55H2.92
		c-0.304,0-0.549-0.246-0.549-0.55v-0.173c0-0.304,0.246-0.549,0.549-0.549H5.097z"/>
	<path fill="#FFFFFF" d="M25.016,19.748c-0.304,0-0.549-0.246-0.549-0.55v-0.173c0-0.304,0.245-0.549,0.549-0.549h2.178
		c0.302,0,0.548,0.245,0.548,0.549v0.173c0,0.304-0.246,0.55-0.548,0.55H25.016z"/>
	<path fill="#FFFFFF" d="M15.691,9.152c0,0.303-0.245,0.548-0.548,0.548h-0.174c-0.303,0-0.548-0.246-0.548-0.548V6.974
		c0-0.302,0.245-0.548,0.548-0.548h0.174c0.303,0,0.548,0.246,0.548,0.548V9.152z"/>
	<path fill="#FFFFFF" d="M14.421,29.071c0-0.304,0.245-0.55,0.548-0.55h0.174c0.303,0,0.548,0.246,0.548,0.55v2.177
		c0,0.303-0.245,0.549-0.548,0.549h-0.174c-0.303,0-0.548-0.246-0.548-0.549V29.071z"/>
	<path fill="#FFFFFF" d="M16.485,20.156c0.214,0.215,0.214,0.562,0,0.775l-0.124,0.124c-0.214,0.214-0.562,0.214-0.775,0
		l-7.119-7.119c-0.214-0.215-0.214-0.563,0-0.777l0.123-0.123c0.215-0.215,0.562-0.215,0.776,0L16.485,20.156z"/>
	<path fill="#FFFFFF" d="M14.587,21.055c-0.213,0.214-0.562,0.214-0.775,0l-0.123-0.124c-0.215-0.214-0.215-0.561,0-0.776
		l5.259-5.259c0.214-0.214,0.563-0.214,0.776,0l0.122,0.123c0.215,0.214,0.215,0.562,0,0.776L14.587,21.055z"/>
</g>
</svg>
